# xmcd CD database file
#
# Track frame offsets:
#	150
#	15018
#	31105
#	44003
#	55769
#	86129
#	100150
#	113678
#	118398
#	132636
#	152974
#	164489
#	171425
#	194868
#	210410
#	223894
#
# Disc length: 3105 seconds
#
# Revision: 0
# Processed by: cddbd v1.5.1PL0 Copyright (c) Steve Scherf et al.
# Submitted via: CDex 1.51
#
DISCID=ec0c1f10
DTITLE=New Orleans  - Brass Bands
DYEAR=2001
DGENRE=Jazz
TTITLE0=At a Georgia Camp Meeting - Sidney Bechet
TTITLE1=Just a little while - Bunk's Brass Band
TTITLE2=B flat Blues - Original Creole Stompers
TTITLE3=Margie - Bunk Johnsons Band
TTITLE4=New Orleans Function - Lois Armstrong
TTITLE5=Make me A pallet - Bunk Johnsons Band
TTITLE6=Sugar Blues - Wooden Joe's Band
TTITLE7=I can't escape from you
TTITLE8=Do right baby -Bunk Johnsons Band
TTITLE9=Slow drag's Boogie Woogie - Bunk Johnsons Band
TTITLE10=Pork Chop - Louis Delisle's Band
TTITLE11=Sam Jacinto Stomp - George Louis Trio
TTITLE12=Dede and Billie's Blues n° 2 - Emile Barne's New Orleans Band
TTITLE13=Bucket' got a hole in it - Kid Thomas Algiers Stompers
TTITLE14=######
TTITLE15=######
EXTD=YEAR: 2001
EXTT0=
EXTT1=
EXTT2=
EXTT3=
EXTT4=
EXTT5=
EXTT6=
EXTT7=
EXTT8=
EXTT9=
EXTT10=
EXTT11=
EXTT12=
EXTT13=
EXTT14=
EXTT15=
PLAYORDER=
